<?xml version="1.0" encoding="UTF-8" standalone="no"?>
<!-- Created with Inkscape (http://www.inkscape.org/) -->

<svg
   width="94.779533mm"
   height="93.158508mm"
   viewBox="0 0 94.779533 93.158508"
   version="1.1"
   id="svg1"
   xml:space="preserve"
   inkscape:export-filename="logo.svg"
   inkscape:export-xdpi="4.2760944"
   inkscape:export-ydpi="4.2760944"
   xmlns:inkscape="http://www.inkscape.org/namespaces/inkscape"
   xmlns:sodipodi="http://sodipodi.sourceforge.net/DTD/sodipodi-0.dtd"
   xmlns="http://www.w3.org/2000/svg"
   xmlns:svg="http://www.w3.org/2000/svg"><sodipodi:namedview
     id="namedview1"
     pagecolor="#505050"
     bordercolor="#eeeeee"
     borderopacity="1"
     inkscape:showpageshadow="0"
     inkscape:pageopacity="0"
     inkscape:pagecheckerboard="0"
     inkscape:deskcolor="#505050"
     inkscape:document-units="mm"
     showborder="true" /><defs
     id="defs1"><clipPath
       clipPathUnits="userSpaceOnUse"
       id="clipPath5"><ellipse
         style="opacity:0.65;fill:#e3dbdb;stroke-width:0.769001"
         id="ellipse5"
         cx="100.92936"
         cy="130.77406"
         rx="47.389767"
         ry="47.932392" /></clipPath></defs><g
     inkscape:label="Layer 1"
     inkscape:groupmode="layer"
     id="layer1"
     transform="translate(-53.539594,-85.547941)"><path
       style="fill:#94a3b8;stroke-width:0.977207"
       d="m 79.208496,215.81527 c -0.49332,-0.16284 -0.829184,-0.53815 -0.919669,-1.0277 -0.03471,-0.18775 -0.03226,-0.19105 0.166367,-0.22436 0.436134,-0.0731 0.530144,-0.0505 0.593051,0.14299 0.03183,0.0978 0.128711,0.24685 0.215296,0.33105 0.132287,0.12864 0.209756,0.15608 0.485118,0.17179 0.26128,0.0149 0.36254,-0.003 0.499638,-0.0908 0.319576,-0.20351 0.358913,-0.56939 0.07703,-0.71648 -0.0791,-0.0412 -0.379777,-0.13863 -0.668165,-0.21633 -0.892602,-0.2405 -1.18751,-0.49341 -1.227359,-1.05257 -0.02754,-0.3865 0.0071,-0.52766 0.181,-0.73741 0.263234,-0.31751 0.501778,-0.40062 1.150087,-0.40062 0.623213,0 0.857543,0.0745 1.114744,0.35436 0.142595,0.15515 0.278537,0.47555 0.278537,0.65645 0,0.13158 -0.0096,0.13512 -0.363706,0.13512 h -0.363707 l -0.09634,-0.19968 c -0.114869,-0.2381 -0.27973,-0.3321 -0.584362,-0.33316 -0.470767,-0.002 -0.741619,0.23776 -0.569912,0.50374 0.07977,0.12356 0.154665,0.1537 1.117381,0.44957 0.70326,0.21614 0.96339,0.51697 0.964933,1.11587 0.0013,0.50282 -0.190438,0.82432 -0.630054,1.05646 -0.20257,0.10699 -1.174037,0.16287 -1.41991,0.0817 z m 6.25696,-0.041 c -0.610404,-0.2139 -1.002141,-0.72981 -1.103175,-1.45286 -0.06275,-0.44909 -0.0021,-1.01539 0.144973,-1.35275 0.143598,-0.3295 0.451474,-0.66173 0.770847,-0.83185 0.241562,-0.12867 0.319786,-0.14175 0.844563,-0.14124 0.491403,4.8e-4 0.614151,0.0184 0.816552,0.11965 0.390467,0.19519 0.61273,0.41791 0.797806,0.79948 0.16682,0.34394 0.173247,0.38099 0.173247,0.99868 0,0.59586 -0.01089,0.66543 -0.15314,0.97811 -0.184694,0.406 -0.503538,0.70953 -0.905775,0.86228 -0.352002,0.13367 -1.03415,0.14376 -1.385898,0.0205 z m 1.077821,-0.65322 c 0.421462,-0.19743 0.604631,-0.56209 0.604631,-1.20376 0,-0.69867 -0.251516,-1.12442 -0.743754,-1.25894 -0.568785,-0.15545 -1.072984,0.17257 -1.231683,0.80131 -0.285652,1.13171 0.491319,2.07338 1.370806,1.66139 z m 31.681573,0.65355 c -0.65979,-0.23443 -1.04485,-0.73106 -1.16224,-1.49902 -0.14316,-0.93652 0.2415,-1.785 0.97544,-2.15156 0.22939,-0.11458 0.33254,-0.13061 0.83985,-0.13061 0.52834,0 0.60452,0.013 0.8811,0.15088 0.32514,0.16206 0.53597,0.39591 0.64564,0.71616 l 0.0686,0.20023 -0.2456,0.0616 c -0.40677,0.10197 -0.49678,0.0868 -0.61363,-0.10365 -0.11593,-0.18893 -0.49932,-0.41168 -0.70779,-0.41123 -0.28001,6.4e-4 -0.55786,0.12294 -0.77095,0.33938 -0.17487,0.1776 -0.22991,0.28264 -0.28217,0.53845 -0.25549,1.25062 0.59834,2.08125 1.61394,1.5701 0.24296,-0.12229 0.2527,-0.13611 0.26814,-0.38038 l 0.016,-0.25347 h -0.4235 -0.42349 v -0.32019 -0.32017 h 0.81494 0.81494 v 0.73779 c 0,0.69694 -0.007,0.74387 -0.1183,0.84778 -0.45211,0.42044 -1.56994,0.62856 -2.19092,0.40793 z m -59.678629,-0.008 c 0,-0.0231 0.316979,-0.8695 0.704397,-1.88107 l 0.704397,-1.83923 h 0.409927 0.409928 l 0.725857,1.84 c 0.399222,1.012 0.725858,1.8595 0.725858,1.88332 0,0.0237 -0.180695,0.0363 -0.401544,0.0276 l -0.401545,-0.0156 -0.154952,-0.41357 -0.154952,-0.41357 h -0.734313 -0.734314 l -0.06766,0.17344 c -0.03721,0.0954 -0.108942,0.2875 -0.159396,0.42691 l -0.09173,0.25347 h -0.389977 c -0.214486,0 -0.389976,-0.0188 -0.389976,-0.0418 z m 2.313372,-1.47178 c 0,-0.0353 -0.428839,-1.17895 -0.470298,-1.25415 -0.0297,-0.0538 -0.0553,-0.0324 -0.09506,0.0797 -0.02993,0.0844 -0.13871,0.38748 -0.241737,0.67365 l -0.18732,0.52029 h 0.497207 c 0.273465,0 0.497208,-0.009 0.497208,-0.0195 z m 4.574167,1.48966 c 0,-0.0156 -0.189276,-0.84524 -0.420613,-1.84377 -0.231337,-0.99852 -0.420613,-1.83925 -0.420613,-1.8683 0,-0.03 0.165189,-0.0528 0.38222,-0.0528 h 0.382221 l 0.258524,1.22736 c 0.142188,0.67506 0.272569,1.22738 0.289736,1.22738 0.01717,0 0.174224,-0.54633 0.349015,-1.21404 l 0.317802,-1.21402 0.45353,-0.0154 0.453531,-0.0154 0.05243,0.20214 c 0.02884,0.11122 0.149511,0.59838 0.268162,1.08266 0.118651,0.48428 0.241416,0.97655 0.272811,1.09395 0.05505,0.20587 0.06613,0.17167 0.311295,-0.96055 0.139817,-0.6457 0.267148,-1.22802 0.282957,-1.29406 0.0264,-0.11022 0.05872,-0.12006 0.395778,-0.12006 0.201869,0 0.367764,0.0181 0.368655,0.04 8.91e-4,0.0221 -0.1943,0.87524 -0.433757,1.89606 l -0.435378,1.85606 -0.415721,-0.0149 -0.415722,-0.0151 -0.345875,-1.34377 c -0.190232,-0.73907 -0.358049,-1.33183 -0.372928,-1.31727 -0.01488,0.0146 -0.183315,0.61928 -0.374302,1.34377 l -0.347249,1.31727 -0.428256,0.0155 c -0.235541,0.009 -0.428256,0.003 -0.428256,-0.0128 z m 6.992691,-1.87045 v -1.89441 h 1.366993 1.366992 v 0.32018 0.32017 H 74.16148 73.162524 v 0.42692 0.42691 h 0.920091 0.920091 v 0.32019 0.32017 h -0.920091 -0.920091 v 0.50696 0.50695 h 1.051533 1.051532 v 0.32019 0.32018 H 73.84602 72.426451 Z m 18.664704,0 v -1.89441 h 0.566106 0.566107 l 0.309886,1.21402 c 0.170437,0.66771 0.323942,1.23097 0.341121,1.25166 0.01718,0.0207 0.172958,-0.5256 0.346174,-1.21402 l 0.314938,-1.25166 h 0.565439 0.565435 v 1.89441 1.89441 h -0.340885 -0.340889 l -0.014,-1.42748 -0.014,-1.42747 -0.304822,1.22735 c -0.167653,0.67506 -0.328266,1.31743 -0.356919,1.42749 l -0.0521,0.20011 h -0.363984 -0.363983 l -0.05195,-0.20011 c -0.02857,-0.11011 -0.171886,-0.6924 -0.318471,-1.29408 -0.146586,-0.60166 -0.288135,-1.14198 -0.314553,-1.20068 -0.03054,-0.0679 -0.04933,0.40335 -0.05159,1.29407 l -0.0036,1.4008 h -0.341748 -0.341748 z m 6.887536,0 v -1.89441 h 1.39328 1.393279 v 0.32018 0.32017 h -0.998954 -0.998955 v 0.42692 0.42691 h 0.920085 0.920094 v 0.32019 0.32017 h -0.920094 -0.920085 v 0.50696 0.50695 h 1.025245 1.025244 v 0.32019 0.32018 h -1.419569 -1.41957 z m 8.347339,0.33352 -0.0139,-1.56089 -0.53891,-0.0152 -0.53891,-0.0152 v -0.3183 -0.31832 h 1.47214 1.47215 v 0.32018 0.32018 h -0.55206 -0.55205 v 1.57423 1.57424 H 106.70725 106.34 Z m 4.56979,0.40023 c 0.24489,-0.63837 0.56913,-1.48485 0.72054,-1.88108 l 0.27528,-0.7204 h 0.40943 0.40943 l 0.70508,1.78769 c 0.3878,0.98322 0.71862,1.83074 0.73517,1.88339 0.0275,0.0873 -0.006,0.0944 -0.3799,0.08 l -0.40999,-0.0156 -0.15319,-0.41357 -0.15319,-0.41358 h -0.74326 -0.74327 l -0.14945,0.42692 -0.14945,0.42691 h -0.40924 -0.40925 z m 1.74481,-0.77377 c -0.0891,-0.24214 -0.19784,-0.54421 -0.24163,-0.67127 -0.0438,-0.12706 -0.0968,-0.2111 -0.11787,-0.18677 -0.021,0.0244 -0.1225,0.28437 -0.22546,0.57787 -0.10296,0.29351 -0.20371,0.57567 -0.22388,0.62703 -0.0334,0.085 0.008,0.0934 0.46709,0.0934 h 0.50378 z m 11.15319,0.0668 v -1.86772 h 0.36803 0.36804 v 1.54755 1.54755 h 0.94638 0.94638 v 0.32017 0.32019 h -1.31442 -1.31441 z m 5.67827,-0.0266 v -1.89442 h 0.39433 0.39432 v 1.89442 1.89441 h -0.39432 -0.39433 z m 4.0484,-0.002 v -1.89676 l 0.38008,0.0156 0.38008,0.0157 0.73718,1.21564 0.73717,1.21565 0.0141,-1.22899 0.0141,-1.22898 h 0.36706 0.36707 v 1.89664 1.89667 l -0.39952,-0.0156 -0.39952,-0.0156 -0.71773,-1.18013 -0.71773,-1.18012 -0.0141,1.19347 -0.0141,1.19346 h -0.36705 -0.36705 z m 6.36178,0.002 v -1.89442 h 1.36699 1.36699 v 0.32019 0.32017 h -0.99895 -0.99896 v 0.42692 0.42691 h 0.92009 0.92009 v 0.32017 0.32019 h -0.92009 -0.92009 v 0.50695 0.50696 h 1.02524 1.02525 v 0.32018 0.32019 h -1.39328 -1.39328 z m -25.13163,-12.83399 v -6.45701 h 1.04525 1.04526 l 0.0656,0.61826 0.0656,0.61826 0.23114,-0.26818 c 1.14767,-1.3316 3.50394,-1.53335 5.22266,-0.44715 1.30972,0.82771 2.04924,2.28558 2.05005,4.04141 3.5e-4,0.77259 -0.0596,1.18 -0.26695,1.81436 -0.63449,1.94113 -2.29811,3.03893 -4.46386,2.9457 -1.09672,-0.0471 -1.83126,-0.3196 -2.45585,-0.91065 l -0.33071,-0.31296 v 2.40748 2.40749 h -1.10411 -1.10411 z m 5.65015,0.61193 c 1.34083,-0.35447 2.12084,-1.73268 1.78904,-3.16107 -0.27635,-1.18969 -1.19259,-1.89257 -2.4707,-1.8954 -1.07864,-0.002 -1.85515,0.47561 -2.28382,1.40583 -0.6858,1.48824 0.0801,3.22537 1.61038,3.65235 0.34838,0.0972 0.98396,0.0964 1.3551,-0.002 z m 11.6284,2.31797 c -1.09279,-0.11703 -1.96665,-0.49807 -2.81008,-1.22532 -0.22548,-0.1944 -0.32432,-0.31538 -0.30835,-0.37738 0.0129,-0.0502 0.25368,-0.42882 0.53501,-0.84144 l 0.51151,-0.75021 0.27003,0.23987 c 0.61552,0.54675 1.97529,1.03849 2.87166,1.03849 0.43863,0 0.96113,-0.17826 1.22153,-0.41675 0.34744,-0.3182 0.43686,-0.64968 0.27097,-1.00449 -0.1734,-0.37089 -0.62476,-0.52112 -1.97612,-0.65775 -2.02262,-0.2045 -3.21478,-1.0466 -3.41086,-2.4093 -0.29195,-2.02904 1.62283,-3.42763 4.38038,-3.19951 0.33865,0.028 0.77619,0.091 0.97232,0.14019 0.58565,0.14657 1.33225,0.53331 1.79218,0.92833 l 0.12118,0.10409 -0.62327,0.74036 -0.62328,0.74037 -0.23398,-0.18296 c -0.64406,-0.50365 -1.52368,-0.72024 -2.44219,-0.60132 -0.7997,0.10354 -1.2175,0.44597 -1.16566,0.95542 0.0604,0.59372 0.56066,0.8213 2.11338,0.96147 2.08026,0.1878 3.15577,0.96709 3.34809,2.42595 0.12599,0.95579 -0.14129,1.76112 -0.79812,2.40472 -0.85651,0.83928 -2.2346,1.178 -4.01633,0.98719 z m -83.262222,-0.0996 c -1.868679,-0.2445 -3.211027,-1.39893 -3.768987,-3.24135 -0.131412,-0.43394 -0.142379,-0.54204 -0.145066,-1.42997 -0.0035,-1.1539 0.05302,-1.42672 0.478131,-2.30802 0.76035,-1.57631 2.237444,-2.46511 4.100466,-2.46734 2.763169,-0.003 4.696891,1.95174 4.696891,4.74868 0,1.37096 -0.436634,2.52547 -1.281103,3.38738 -0.618491,0.63125 -1.371151,1.04584 -2.238864,1.23322 -0.438552,0.0947 -1.400227,0.13513 -1.841468,0.0775 z m 1.219819,-2.08929 c 0.699017,-0.14923 1.32695,-0.65043 1.625111,-1.29713 0.693907,-1.50505 0.05759,-3.31841 -1.360967,-3.87849 -0.412864,-0.16301 -1.166653,-0.16549 -1.601371,-0.006 -0.938217,0.34578 -1.525027,1.21164 -1.601597,2.36323 -0.05627,0.84627 0.212915,1.65027 0.731579,2.18507 0.543599,0.5605 1.39796,0.80537 2.207245,0.63261 z m 23.270777,2.0385 c -0.629213,-0.13903 -0.789959,-0.1962 -1.307344,-0.46486 -1.090937,-0.5665 -1.824208,-1.50974 -2.160987,-2.77975 -0.157143,-0.5926 -0.196246,-1.96246 -0.07356,-2.577 0.281256,-1.40883 1.120552,-2.55455 2.316455,-3.16216 1.341593,-0.68163 3.447054,-0.67694 4.743665,0.0112 0.810056,0.42951 1.31598,0.96317 1.704363,1.79777 0.336808,0.72379 0.429936,1.22496 0.435082,2.34144 l 0.0044,0.96055 -3.506546,0.0137 -3.506545,0.0137 0.08041,0.27978 c 0.275051,0.95699 1.104427,1.5332 2.335266,1.62246 0.855662,0.0621 1.985166,-0.25319 2.508445,-0.70009 l 0.160531,-0.1371 0.716447,0.70224 0.716446,0.70223 -0.120265,0.13141 c -0.398081,0.43499 -1.359581,0.94987 -2.186222,1.17074 -0.709926,0.18968 -2.166731,0.22755 -2.860072,0.0743 z m 3.49013,-5.90126 c -0.009,-0.088 -0.07133,-0.28304 -0.138548,-0.43332 -0.338245,-0.75615 -1.060558,-1.14457 -2.138525,-1.14997 -1.088514,-0.006 -1.915413,0.45644 -2.332705,1.30305 -0.100939,0.20478 -0.170404,0.39387 -0.154368,0.42022 0.01672,0.0275 1.042504,0.0419 2.404816,0.034 l 2.375659,-0.0138 z m 67.946956,5.894 c -1.5359,-0.2435 -2.59816,-1.34495 -3.00809,-3.11908 -0.0728,-0.31491 -0.0897,-0.82381 -0.10773,-3.24186 l -0.0214,-2.86829 h 1.10777 1.10776 l 10e-4,2.4147 c 5.7e-4,1.32809 0.0242,2.57734 0.0525,2.77612 0.18189,1.27672 0.95062,2.01328 2.10121,2.01328 0.98094,0 1.76203,-0.57274 2.16615,-1.58834 0.12085,-0.30371 0.12191,-0.32659 0.13723,-2.96092 l 0.0154,-2.65484 h 1.10182 1.10181 v 4.5626 4.56261 h -0.99194 -0.99193 l -0.0666,-0.58702 c -0.0366,-0.32284 -0.083,-0.587 -0.10301,-0.587 -0.02,0 -0.0937,0.0623 -0.16385,0.13841 -0.39373,0.42753 -1.20094,0.90234 -1.79923,1.05832 -0.39442,0.10286 -1.23892,0.14472 -1.63894,0.0812 z M 31.521834,197.26499 v -6.48369 h 1.209262 1.209263 v 5.36305 5.36306 h 3.259751 3.259751 v 1.12064 1.12064 h -4.469014 -4.469013 z m 27.392424,1.9211 v -4.56261 h 1.01803 1.018031 l 0.06317,0.41357 c 0.09779,0.64022 0.09496,0.63588 0.262306,0.40236 0.341479,-0.47657 0.840734,-0.80646 1.436118,-0.94893 0.421277,-0.10086 1.275535,-0.10097 1.74918,-4.3e-4 0.384614,0.0817 1.101419,0.41581 1.360114,0.63402 l 0.150852,0.12725 -0.511469,0.99735 -0.511469,0.99732 -0.112572,-0.10197 c -0.194059,-0.17572 -0.46929,-0.3199 -0.790131,-0.41389 -0.382061,-0.11193 -1.189219,-0.0858 -1.58435,0.0514 -0.542107,0.1881 -0.957628,0.60462 -1.193297,1.19618 -0.118752,0.29809 -0.120166,0.3298 -0.135388,3.03613 l -0.01538,2.73489 h -1.101871 -1.10187 z m 24.763592,0 v -4.56261 h 1.021067 1.021067 l 0.02759,0.14675 c 0.01517,0.0807 0.05504,0.32303 0.0886,0.53849 l 0.06101,0.39173 0.09395,-0.1568 c 0.486805,-0.81247 1.76154,-1.24652 2.946157,-1.00316 0.803275,0.16502 1.398007,0.5843 1.803638,1.27154 l 0.181814,0.30803 0.193384,-0.26739 c 0.451882,-0.6248 1.171061,-1.10156 1.894079,-1.25564 0.431069,-0.0918 1.275456,-0.10308 1.761315,-0.0235 0.7858,0.12882 1.55598,0.53565 2.00164,1.05729 0.25931,0.30352 0.65281,1.09688 0.75757,1.52738 0.16079,0.66069 0.18302,1.12316 0.18404,3.82886 l 0.001,2.76157 h -1.10411 -1.10411 l -4e-4,-2.57481 c -2.3e-4,-1.51625 -0.0228,-2.71741 -0.0549,-2.92167 -0.16219,-1.03226 -0.78327,-1.63135 -1.679734,-1.62028 -0.839377,0.01 -1.518159,0.56066 -1.788864,1.45022 -0.09759,0.32069 -0.103895,0.50291 -0.103895,3.00397 v 2.66257 h -1.130397 -1.130398 v -2.65698 c 0,-2.84164 -0.0078,-2.94254 -0.273184,-3.51794 -0.172884,-0.37491 -0.540882,-0.72425 -0.912898,-0.86663 -0.428927,-0.16416 -1.034006,-0.13683 -1.416461,0.064 -0.330983,0.17378 -0.663651,0.52081 -0.836499,0.87263 -0.277578,0.56497 -0.29228,0.74203 -0.293121,3.53014 l -7.77e-4,2.57481 h -1.10411 -1.104109 z m 23.3966,-1.9211 v -6.48369 h 1.18297 1.18298 v 6.48369 6.4837 h -1.18298 -1.18297 z m 48.58081,1.9211 v -4.56261 h 1.02106 1.02107 l 0.0276,0.14675 c 0.0152,0.0807 0.042,0.25482 0.0596,0.38689 0.0175,0.13208 0.0445,0.30658 0.0598,0.38779 l 0.0279,0.14766 0.13109,-0.20102 c 0.37669,-0.57764 1.13048,-0.95173 2.03208,-1.00848 1.17304,-0.0738 2.13672,0.40351 2.68294,1.32896 l 0.18181,0.30803 0.1912,-0.26437 c 0.45863,-0.63413 1.16465,-1.10274 1.89627,-1.25866 0.43107,-0.0918 1.27545,-0.10308 1.76131,-0.0235 0.78687,0.129 1.55982,0.53766 1.99975,1.05729 0.30383,0.35887 0.61587,1.00179 0.77438,1.59548 l 0.13853,0.51891 0.0193,3.0017 0.0193,3.00172 h -1.10461 -1.10461 l -0.0196,-2.76157 c -0.021,-2.94938 -0.0239,-2.98393 -0.29602,-3.52423 -0.31539,-0.62613 -1.01974,-0.9575 -1.72235,-0.81032 -0.75312,0.15777 -1.24842,0.63634 -1.49677,1.44622 -0.0914,0.29823 -0.099,0.52757 -0.099,2.98646 v 2.66344 h -1.1304 -1.1304 v -2.65698 c 0,-2.87523 -0.008,-2.96965 -0.29243,-3.53976 -0.18911,-0.37877 -0.54258,-0.71037 -0.90521,-0.8492 -0.41764,-0.1599 -1.02611,-0.12989 -1.40972,0.0694 -0.53895,0.28011 -0.94087,0.87955 -1.07652,1.60555 -0.027,0.1444 -0.0491,1.41194 -0.0491,2.81673 v 2.55418 h -1.10411 -1.1041 z M 99.740006,175.8546 c -0.499085,-0.0704 -1.505865,-0.39338 -1.997905,-0.6408 -0.66902,-0.3364 -33.287654,-19.48739 -33.72791,-19.80226 -0.274713,-0.19648 -0.727417,-0.58536 -1.00601,-0.86418 -0.926324,-0.9271 -1.404291,-1.85506 -1.68894,-3.27907 l -0.1179,-0.58981 v -19.77126 c 0,-21.25347 -0.01289,-20.21799 0.265474,-21.33364 0.13513,-0.54158 0.478888,-1.32525 0.794004,-1.8101 0.274613,-0.42252 1.008811,-1.18981 1.509827,-1.57786 0.341097,-0.26417 14.064113,-8.363948 14.170615,-8.363948 0.01775,0 1.877604,1.87308 4.133002,4.162368 l 4.100724,4.16239 h -6.637673 -6.637673 v 17.27642 17.27641 l -5.139365,5.22306 -5.139366,5.22308 5.150297,-4.94498 5.150298,-4.94498 6.889825,6.99282 c 3.789404,3.84606 6.907537,6.99282 6.929184,6.99282 0.02165,0 0.03936,-6.44164 0.03936,-14.31479 v -14.3148 l 17.961316,18.22369 17.96132,18.2237 -3.48399,-3.86888 -3.484,-3.86886 6.29045,-0.0136 6.29044,-0.0136 v -17.27621 -17.27619 l 5.16565,-5.25089 5.16566,-5.25088 -2.52368,2.42431 c -1.38803,1.33339 -3.71663,3.57201 -5.17468,4.97473 l -2.651,2.55042 -6.89174,-6.99476 c -3.79045,-3.84712 -6.90939,-6.99476 -6.93099,-6.99476 -0.0216,0 -0.0452,6.43628 -0.0525,14.30284 l -0.0132,14.30283 -13.22074,-14.10272 C 89.320299,108.04308 87.499416,106.12365 83.393928,101.94541 c -2.515421,-2.560008 -4.562996,-4.662828 -4.550166,-4.672908 0.207365,-0.16327 18.451979,-10.79331 18.877529,-10.9988 1.10419,-0.53323 1.87266,-0.72576 2.896929,-0.72576 0.99023,0 2.04802,0.2639 2.96586,0.73991 0.86626,0.44926 33.17163,19.423778 33.61842,19.745738 0.60622,0.43684 1.22801,1.02482 1.57792,1.49211 0.63568,0.84894 1.07895,2.08877 1.20486,3.37003 0.0445,0.45293 0.0557,5.71591 0.0425,20.09146 -0.0164,17.92692 -0.0248,19.52027 -0.10593,20.0114 -0.18502,1.11998 -0.49053,1.95435 -0.98762,2.6973 -0.30183,0.45112 -0.92935,1.11098 -1.44774,1.52234 -0.49974,0.39656 -32.95214,19.4404 -33.961,19.92913 -1.16523,0.56446 -1.91073,0.75007 -2.96206,0.73743 -0.36615,-0.004 -0.736714,-0.018 -0.823464,-0.0303 z"
       id="path3"
       inkscape:label="path3"
       clip-path="url(#clipPath5)" /></g></svg>
